<svg xmlns="http://www.w3.org/2000/svg" viewBox="0 0 400 325"><path d="M125.8 325c150.9 0 233.5-125 233.5-233.5 0-3.6 0-7.1-.2-10.6 16.1-11.6 29.9-26 40.9-42.5-15 6.6-30.9 11-47.1 12.9C370 41 382.9 24.9 389 5.9c-16.1 9.6-33.7 16.3-52.1 19.9-31.1-33-83.1-34.6-116.1-3.6-21.3 20-30.4 49.9-23.7 78.4C131 97.4 69.5 66.2 27.8 15 6.1 52.5 17.2 100.4 53.2 124.5c-13.1-.4-25.8-3.9-37.2-10.3v1c0 39.1 27.5 72.7 65.8 80.4-12.1 3.3-24.8 3.8-37.1 1.4 10.8 33.4 41.6 56.3 76.7 57-29.1 22.8-65 35.2-101.9 35.2-6.5 0-13.1-.4-19.5-1.2 37.5 24.2 81.2 37 125.8 37" fill="#fff"/></svg>