<svg version="1.1" id="Layer_1" xmlns="http://www.w3.org/2000/svg" x="0" y="0" viewBox="0 0 310 310" xml:space="preserve"><style>.st0{fill:#fff}</style><circle class="st0" cx="51.7" cy="155" r="51.7"/><circle class="st0" cx="155" cy="155" r="51.7"/><circle class="st0" cx="258.3" cy="155" r="51.7"/><path class="st0" d="M0 0v103.3h103.4C103.3 46.3 57 0 0 0zM310 310V206.7H206.6C206.7 263.7 253 310 310 310zM310 0c-57 0-103.3 46.3-103.3 103.3H310V0zM0 206.7V310c57 0 103.3-46.3 103.3-103.3H0z"/><path class="st0" d="M103.3 206.7V310c18.8 0 36.5-5 51.7-13.8 15.2 8.8 32.9 13.8 51.7 13.8V206.7H103.3zM206.7 103.3V0c-18.8 0-36.5 5-51.7 13.8C139.8 5 122.1 0 103.3 0v103.3h103.4z"/></svg>