<?xml version="1.0" encoding="utf-8"?>
<!-- Generator: Adobe Illustrator 22.1.0, SVG Export Plug-In . SVG Version: 6.00 Build 0)  -->
<svg version="1.1" id="trace_x5F_2" xmlns="http://www.w3.org/2000/svg" xmlns:xlink="http://www.w3.org/1999/xlink" x="0px"
	 y="0px" viewBox="0 0 100 100" style="enable-background:new 0 0 100 100;" xml:space="preserve">
<style type="text/css">
	.st0{fill:#FFFFFF;}
</style>
<path class="st0" d="M100,50c0-7.164-3.961-13.398-9.807-16.648c1.836-6.433,0.229-13.641-4.837-18.707
	c-5.066-5.066-12.274-6.673-18.707-4.837C63.398,3.961,57.164,0,50,0S36.602,3.961,33.352,9.807
	c-6.433-1.836-13.641-0.229-18.707,4.837S7.972,26.919,9.807,33.352C3.961,36.602,0,42.836,0,50s3.961,13.398,9.807,16.648
	c-1.836,6.433-0.229,13.641,4.837,18.707c5.066,5.066,12.274,6.673,18.707,4.837C36.602,96.039,42.836,100,50,100
	s13.398-3.961,16.648-9.807c6.433,1.836,13.641,0.229,18.707-4.837c5.066-5.066,6.673-12.274,4.837-18.707
	C96.039,63.398,100,57.164,100,50z M82.454,57.253c-0.496,0.462-2.117,1.786-4.478,1.786c-2.853,0-7.08-1.781-7.08-7.879
	c0-2.731-0.438-4.739-1.328-5.747c-5.524-6.263-11.842,3.444-11.842,7.177c0,5.06,8.037,9.084,11.865,10.328
	c2.529,0.822,5.84,0.915,7.803,0.883c-6.08,5.617-15.491,9.3-26.151,9.57V62.093c0-0.701-0.501-1.269-1.119-1.269
	s-1.119,0.568-1.119,1.269V73.38c-10.762-0.218-20.273-3.918-26.4-9.58c1.957,0.033,5.302-0.054,7.85-0.883
	c3.829-1.244,11.865-5.268,11.865-10.328c0-3.733-6.318-13.44-11.842-7.177c-0.89,1.009-1.328,3.017-1.328,5.747
	c0,6.097-4.227,7.879-7.08,7.879c-2.489,0-4.176-1.487-4.566-1.866c-1.312-2.591-2.064-5.371-2.064-8.282
	c0-13.545,15.473-22.27,34.559-22.27s34.559,8.725,34.559,22.27C84.559,51.832,83.791,54.639,82.454,57.253z"/>
</svg>
