<?xml version="1.0" encoding="utf-8"?>
<!-- Generator: Adobe Illustrator 22.1.0, SVG Export Plug-In . SVG Version: 6.00 Build 0)  -->
<svg version="1.1" id="icon" xmlns="http://www.w3.org/2000/svg" xmlns:xlink="http://www.w3.org/1999/xlink" x="0px" y="0px"
	 viewBox="0 0 100 100" style="enable-background:new 0 0 100 100;" xml:space="preserve">
<style type="text/css">
	.st0{fill:#FFFFFF;}
</style>
<path class="st0" d="M100,49.742c0-6.87-3.535-12.907-8.879-16.415c0.497-1.728,0.779-3.547,0.779-5.434
	C91.9,17.05,83.11,8.26,72.267,8.26c-1.891,0-3.714,0.282-5.445,0.781c-3.505-5.362-9.551-8.912-16.436-8.912
	c-6.99,0-13.11,3.664-16.589,9.164c-1.965-0.66-4.062-1.033-6.25-1.033c-10.843,0-19.633,8.79-19.633,19.633
	c0,1.923,0.289,3.776,0.804,5.531C3.462,36.947,0,42.939,0,49.742S3.462,62.537,8.719,66.06c-0.515,1.756-0.804,3.609-0.804,5.531
	c0,10.843,8.79,19.633,19.633,19.633c2.091,0,4.103-0.334,5.994-0.94c3.428,5.734,9.679,9.586,16.845,9.586
	c7.071,0,13.25-3.751,16.707-9.358c1.651,0.451,3.38,0.712,5.174,0.712c10.843,0,19.633-8.79,19.633-19.633
	c0-1.887-0.282-3.707-0.779-5.434C96.465,62.649,100,56.612,100,49.742z M83.33,56.595c-0.511,0.42-2.183,1.624-4.617,1.624
	c-2.942,0-7.299-1.62-7.299-7.164c0-2.483-0.452-4.309-1.369-5.226c-5.695-5.695-12.209,3.131-12.209,6.526
	c0,4.601,8.286,8.26,12.233,9.391c2.607,0.747,6.021,0.832,8.045,0.803c-6.269,5.107-15.971,8.456-26.961,8.702V60.996
	c0-0.637-0.517-1.154-1.154-1.154c-0.637,0-1.153,0.517-1.153,1.154v10.263c-11.095-0.198-20.901-3.563-27.218-8.711
	c2.017,0.03,5.466-0.049,8.093-0.803c3.947-1.131,12.233-4.79,12.233-9.391c0-3.395-6.514-12.221-12.209-6.526
	c-0.917,0.917-1.369,2.743-1.369,5.226c0,5.544-4.358,7.164-7.3,7.164c-2.567,0-4.305-1.352-4.707-1.697
	c-1.353-2.356-2.128-4.884-2.128-7.531c0-12.316,15.952-20.25,35.629-20.25s35.629,7.934,35.629,20.25
	C85.501,51.665,84.709,54.218,83.33,56.595z"/>
</svg>
