<svg width="15" height="12" xmlns="http://www.w3.org/2000/svg"><path d="M11.224 11.871a404.507 404.507 0 01-3.266-2.369l-1.805 1.704a.505.505 0 01-.474.121.512.512 0 01-.352-.336c-.441-1.3-1.288-3.858-1.288-3.858S2.227 6.558.846 6.145A.483.483 0 01.5 5.7a.484.484 0 01.316-.467C3.895 4.094 11.428 1.268 13.874.362a.47.47 0 01.465.082.457.457 0 01.151.443c-.461 2.166-1.691 8.196-2.198 10.578a.678.678 0 01-.422.491.696.696 0 01-.646-.085zM4.801 6.809l.98 3.231.218-2.046 5.941-5.358a.162.162 0 00.019-.22.165.165 0 00-.219-.037l-6.939 4.43z" fill="#FFF" fill-rule="evenodd"/></svg>