<?xml version="1.0" encoding="UTF-8"?>
<svg width="391px" height="658px" viewBox="0 0 391 658" version="1.1" xmlns="http://www.w3.org/2000/svg" xmlns:xlink="http://www.w3.org/1999/xlink">
    <!-- Generator: Sketch 46.2 (44496) - http://www.bohemiancoding.com/sketch -->
    <title>tumblr-logo-white</title>
    <desc>Created with Sketch.</desc>
    <defs></defs>
    <g id="Page-1" stroke="none" stroke-width="1" fill="none" fill-rule="evenodd">
        <g id="tumblr-logo-white" fill-rule="nonzero" fill="#FFFFFF">
            <path d="M387.77,616.58 C365.56,640.3 314.09,656.4 268,657.16 L262.94,657.16 C108.1,657.16 74.47,543.32 74.47,476.87 L74.47,292.26 L13.47,292.26 C10.0778811,292.26 6.82469455,290.912486 4.42610427,288.513896 C2.02751399,286.115305 0.68,282.862119 0.68,279.47 L0.68,192.29 C0.686043825,183.094565 6.48195618,174.899377 15.15,171.83 C94.64,143.83 119.57,74.46 123.26,21.73 C124.26,7.64 131.63,0.81 143.86,0.81 L234.78,0.81 C241.843722,0.81 247.57,6.53627805 247.57,13.6 L247.57,161.25 L354,161.25 C361.052033,161.244452 366.777947,166.947999 366.8,174 L366.8,278.77 C366.797349,282.162119 365.447292,285.414253 363.046826,287.810968 C360.64636,290.207683 357.392119,291.552653 354,291.55 L247.08,291.55 L247.08,462.28 C247.08,505.15 275.33,516.98 292.78,516.98 C309.52,516.58 326,511.48 334.26,508.16 C340.39,505.7 345.78,504.07 350.6,505.28 C355.09,506.4 358.04,509.58 360.03,515.38 L388.24,597.78 C390.53,604.38 392.5,611.53 387.77,616.58 Z" id="Shape"></path>
        </g>
    </g>
</svg>